Coordinates
version=1
nRows=16
nColumns=42
inDegrees=yes

Units are S.I. units (second, meters, Newtons, ...)
If the header above contains a line with 'inDegrees', this indicates whether rotational values are in degrees (yes) or radians (no).

endheader
time	pelvis_tilt	pelvis_list	pelvis_rotation	pelvis_tx	pelvis_ty	pelvis_tz	hip_flexion_r	hip_adduction_r	hip_rotation_r	knee_angle_r	knee_adduction_r	knee_angle_r_beta	ankle_angle_r	subtalar_angle_r	mtp_angle_r	hip_flexion_l	hip_adduction_l	hip_rotation_l	knee_angle_l	knee_adduction_l	knee_angle_l_beta	ankle_angle_l	subtalar_angle_l	mtp_angle_l	lumbar_extension	lumbar_bending	lumbar_rotation	arm_flex_r	arm_add_r	arm_rot_r	elbow_flex_r	pro_sup_r	wrist_flex_r	wrist_dev_r	arm_flex_l	arm_add_l	arm_rot_l	elbow_flex_l	pro_sup_l	wrist_flex_l	wrist_dev_l
      1.98000000	     10.47198145	      0.50763508	      8.70413480	      0.29486796	      0.87837883	      0.15707982	     12.97417594	      0.03537183	     -5.47833836	     50.07090262	      0.39766100	      0.87390211	     16.92383955	    -14.57093975	     -7.52120442	      1.23860889	      5.49051716	     -2.21868241	     27.69171755	     -5.43539601	      0.48331165	     23.94555173	      1.95596104	     -7.52120442	    -38.42801819	      5.64973157	     -8.20106110	     14.40862747	     -9.39682479	      5.25360311	     38.56767318	     90.00000001	      0.00000000	      0.00000000	     22.06382930	    -16.37852584	      3.86277016	     36.57365712	     90.00000001	      0.00000000	      0.00000000
      1.99000000	     10.12069412	      0.61199416	      8.84995455	      0.30268023	      0.87752991	      0.15667103	     13.89500378	     -0.22598068	     -5.22895457	     47.13433174	      0.69168756	      0.82264928	     16.73008765	    -14.15704144	     -7.52067947	      1.04268232	      5.68027005	     -2.41362777	     27.68530266	     -5.75569322	      0.48319969	     24.48863219	      2.23660296	     -7.52067947	    -38.14948602	      5.62332413	     -8.35503512	     13.92113363	     -9.34342545	      4.90527538	     38.11256477	     90.00000001	      0.00000000	      0.00000000	     22.67462235	    -16.55015801	      4.46500829	     37.02869098	     90.00000001	      0.00000000	      0.00000000
      2.00000000	     10.18202458	      0.55924600	      8.91747433	      0.31094373	      0.87754834	      0.15688873	     13.97690474	     -0.03861026	     -4.58524454	     43.42723371	      1.05815837	      0.75794821	     16.18862673	    -14.41287682	     -7.51982065	      0.28321337	      5.33583871	     -2.75364904	     27.52974462	     -5.62721839	      0.48048469	     25.12880037	      3.20078813	     -7.51982065	    -38.29403328	      5.71431457	     -8.27583747	     13.50231371	     -9.16885804	      4.03478386	     37.53641928	     90.00000001	      0.00000000	      0.00000000	     23.28531745	    -16.89604069	      5.66664826	     37.61846418	     90.00000001	      0.00000000	      0.00000000
      2.01000000	     10.03782982	      0.57414144	      8.98614413	      0.31906546	      0.87696547	      0.15696001	     14.30974493	     -0.04484074	     -4.07292824	     39.80810132	      1.38397187	      0.69478244	     15.56643287	    -14.84702293	     -7.51843858	     -0.14095508	      5.20912083	     -3.39096312	     27.51480110	     -5.85047164	      0.48022387	     25.87078107	      4.36876215	     -7.51843858	    -38.23322519	      5.73163427	     -8.24112579	     13.00512459	     -9.05321970	      3.23525547	     37.17867480	     90.00000001	      0.00000000	      0.00000000	     23.88015861	    -17.13922101	      6.56213631	     38.19338021	     90.00000001	      0.00000000	      0.00000000
      2.02000000	      9.70716002	      0.65014544	      9.16364709	      0.32702881	      0.87584273	      0.15676501	     14.84367561	     -0.28284537	     -4.07592766	     36.27974162	      1.57062474	      0.63320094	     15.56347938	    -14.34857210	     -7.51786821	     -0.27417064	      5.23915790	     -3.64683905	     27.71093764	     -6.00477275	      0.48364710	     26.53009283	      4.67996873	     -7.51786821	    -37.96921394	      5.73062049	     -8.37381462	     12.57055521	     -8.99076106	      2.84956203	     36.67283987	     90.00000001	      0.00000000	      0.00000000	     24.45357487	    -17.29502339	      7.07177871	     38.64713092	     90.00000001	      0.00000000	      0.00000000
      2.03000000	      9.23610220	      0.84757728	      9.18527780	      0.33500254	      0.87431429	      0.15680864	     15.63013504	     -0.60147688	     -4.32718165	     33.05167565	      1.41792525	      0.57686056	     15.43986190	    -13.79397802	     -7.51748583	     -0.35472533	      5.56050970	     -3.87148829	     27.73526950	     -6.36675905	      0.48407177	     27.04657283	      4.96964307	     -7.51748583	    -37.57574407	      5.51437643	     -8.47322213	     12.05892481	     -8.95277479	      2.51436508	     36.40570572	     90.00000001	      0.00000000	      0.00000000	     24.96045272	    -17.44836198	      7.44351004	     39.13279455	     90.00000001	      0.00000000	      0.00000000
      2.04000000	      9.50272395	      0.59599991	      9.24532028	      0.34377889	      0.87438438	      0.15744965	     14.81534410	     -0.06282294	     -3.71784915	     28.43102519	      1.58317288	      0.49621500	     14.58107751	    -14.59785118	     -7.51587462	     -1.24185875	      4.75590142	     -4.86791618	     27.72459073	     -6.27630460	      0.48388539	     28.03962537	      7.01729594	     -7.51587462	    -37.90853903	      5.80720480	     -8.16032811	     11.61713785	     -8.79277124	      1.23289578	     36.03633825	     90.00000001	      0.00000000	      0.00000000	     25.47496819	    -17.67424543	      8.49403521	     39.82000950	     90.00000001	      0.00000000	      0.00000000
      2.05000000	      9.01929014	      0.73216553	      9.39075799	      0.35179681	      0.87266370	      0.15737741	     15.42923683	     -0.40206094	     -4.28475859	     25.31074463	      1.52655548	      0.44175583	     14.64739715	    -13.59361179	     -7.51549869	     -1.20184908	      4.98322778	     -5.00301351	     27.94798092	     -6.60434257	      0.48778429	     28.67173311	      7.08736183	     -7.51549869	    -37.49211416	      5.71959329	     -8.29387218	     11.15224024	     -8.79065212	      0.98293012	     35.73762674	     90.00000001	      0.00000000	      0.00000000	     25.91139266	    -17.76154954	      8.74532162	     40.31102648	     90.00000001	      0.00000000	      0.00000000
      2.06000000	      8.71206017	      0.76910763	      9.53791616	      0.36014376	      0.87123554	      0.15748721	     15.63375016	     -0.52058706	     -4.76741676	     22.11541812	      1.44584152	      0.38598686	     14.61020046	    -12.64226446	     -7.51516283	     -1.42363986	      4.99920468	     -5.11157677	     28.08132798	     -6.83844208	      0.49011163	     29.37921120	      7.34362947	     -7.51516283	    -37.22918450	      5.73643302	     -8.34088703	     10.70260811	     -8.77570648	      0.56997409	     35.44629926	     90.00000001	      0.00000000	      0.00000000	     26.30731389	    -17.86817560	      9.08337431	     40.86920233	     90.00000001	      0.00000000	      0.00000000
      2.07000000	      9.00102939	      0.48504787	      9.57449330	      0.36929519	      0.87097398	      0.15836949	     14.64577727	      0.08267427	     -4.11583219	     18.26351042	      1.53098423	      0.31875839	     13.59691510	    -13.31831972	     -7.51358017	     -2.37067138	      4.16264838	     -5.87686875	     28.09274532	     -6.69769968	      0.49031090	     30.27242128	      8.99757103	     -7.51358017	    -37.53712668	      6.05122301	     -7.98986601	     10.29141884	     -8.64802260	     -0.59283893	     35.17792113	     90.00000001	      0.00000000	      0.00000000	     26.64768806	    -18.00124156	      9.73186366	     41.58314293	     90.00000001	      0.00000000	      0.00000000
      2.08000000	      8.89216653	      0.43303577	      9.69413211	      0.37814666	      0.86977733	      0.15867143	     14.52091582	      0.11324541	     -4.33010399	     15.80466497	      1.63351866	      0.27584344	     13.33388281	    -12.62051085	     -7.51282216	     -2.89023401	      3.98870691	     -5.86195457	     28.15401115	     -6.78572491	      0.49138019	     30.95297250	      9.31411307	     -7.51282216	    -37.42622487	      6.17445546	     -7.91309558	      9.84877031	     -8.66682277	     -1.09633296	     34.95123036	     90.00000001	      0.00000000	      0.00000000	     26.87233773	    -18.05461195	     10.01042695	     42.21262613	     90.00000001	      0.00000000	      0.00000000
      2.09000000	      8.57114478	      0.42571965	      9.88813245	      0.38674218	      0.86807899	      0.15884724	     14.83876770	     -0.01370831	     -4.59145083	     14.29172425	      1.82876198	      0.24943764	     13.24696508	    -12.01679987	     -7.51259421	     -3.06838452	      3.98150106	     -5.68920543	     28.38164116	     -6.97571818	      0.49535309	     31.69346682	      9.18726480	     -7.51259421	    -37.10015201	      6.26407814	     -7.93910924	      9.41489565	     -8.72864937	     -1.32422681	     34.74716687	     90.00000001	      0.00000000	      0.00000000	     27.10035792	    -18.06346235	     10.09098226	     42.75204170	     90.00000001	      0.00000000	      0.00000000
      2.10000000	      8.54468833	      0.23041880	     10.08042283	      0.39580628	      0.86699439	      0.15935149	     14.65205716	      0.26073520	     -4.56102386	     12.94486746	      1.94369173	      0.22593056	     12.92331339	    -11.72422778	     -7.51228700	     -3.66137561	      3.58963466	     -5.41026495	     28.50886753	     -6.95073575	      0.49757360	     32.30207629	      9.13265535	     -7.51228700	    -37.05296471	      6.55869037	     -7.82341119	      9.04547231	     -8.71568211	     -1.80655450	     34.53412602	     90.00000001	      0.00000000	      0.00000000	     27.19737728	    -18.09697513	     10.23726946	     43.47109458	     90.00000001	      0.00000000	      0.00000000
      2.11000000	      8.51101752	      0.05949151	     10.26273797	      0.40486171	      0.86590185	      0.15983262	     14.55537859	      0.50902070	     -4.40261763	     12.28508233	      2.08414474	      0.21441514	     12.51794452	    -11.82282257	     -7.51197439	     -4.26687390	      3.28951970	     -4.98654530	     28.58977366	     -6.97279110	      0.49898568	     32.92949199	      8.90779772	     -7.51197439	    -36.98235786	      6.82998593	     -7.73604407	      8.73311751	     -8.72802667	     -2.23499370	     34.36364143	     90.00000001	      0.00000000	      0.00000000	     27.27208230	    -18.08287699	     10.30415090	     44.12284156	     90.00000001	      0.00000000	      0.00000000
      2.12000000	      8.40033316	      0.00685069	     10.42739502	      0.41408747	      0.86471245	      0.16027547	     14.65037481	      0.60872687	     -4.25467837	     12.37814440	      2.21608723	      0.21603938	     12.43058472	    -11.80169230	     -7.51195635	     -4.76794356	      3.16697237	     -4.86615395	     28.71947490	     -7.15472564	      0.50124940	     33.03879808	      8.86627763	     -7.51195635	    -36.79420730	      6.97450882	     -7.69568503	      8.34125160	     -8.80905301	     -2.28468430	     34.17753721	     90.00000001	      0.00000000	      0.00000000	     27.33398485	    -18.05338741	     10.28917518	     44.26396243	     90.00000001	      0.00000000	      0.00000000
      2.13000000	      8.49091724	     -0.36140285	     10.61653528	      0.42343078	      0.86392651	      0.16075772	     14.57244049	      1.14838747	     -4.16019311	     12.90774903	      2.34127611	      0.22528272	     11.92146925	    -12.17313904	     -7.51182956	     -5.50734619	      2.62567736	     -4.33371020	     28.82318364	     -7.13243270	      0.50305946	     33.96883707	      8.33923418	     -7.51182956	    -36.81335031	      7.49853116	     -7.41636367	      8.09087108	     -8.97926951	     -2.56051203	     33.98818746	     90.00000001	      0.00000000	      0.00000000	     27.21490592	    -17.90191323	     10.20428390	     45.07211022	     90.00000001	      0.00000000	      0.00000000
